<?xml version="1.0" encoding="UTF-8" standalone="no"?>
<!-- Created with Inkscape (http://www.inkscape.org/) -->
<svg
   xmlns:dc="http://purl.org/dc/elements/1.1/"
   xmlns:cc="http://creativecommons.org/ns#"
   xmlns:rdf="http://www.w3.org/1999/02/22-rdf-syntax-ns#"
   xmlns:svg="http://www.w3.org/2000/svg"
   xmlns="http://www.w3.org/2000/svg"
   xmlns:sodipodi="http://sodipodi.sourceforge.net/DTD/sodipodi-0.dtd"
   xmlns:inkscape="http://www.inkscape.org/namespaces/inkscape"
   version="1.0"
   width="55.944637"
   height="107.07605"
   id="svg2"
   sodipodi:version="0.32"
   inkscape:version="0.46"
   sodipodi:docname="cross.svg"
   inkscape:output_extension="org.inkscape.output.svg.inkscape">
  <metadata
     id="metadata9">
    <rdf:RDF>
      <cc:Work
         rdf:about="">
        <dc:format>image/svg+xml</dc:format>
        <dc:type
           rdf:resource="http://purl.org/dc/dcmitype/StillImage" />
      </cc:Work>
    </rdf:RDF>
  </metadata>
  <sodipodi:namedview
     inkscape:window-height="989"
     inkscape:window-width="1680"
     inkscape:pageshadow="2"
     inkscape:pageopacity="0.0"
     guidetolerance="10.0"
     gridtolerance="10.0"
     objecttolerance="10.0"
     borderopacity="1.0"
     bordercolor="#666666"
     pagecolor="#ffffff"
     id="base"
     showgrid="false"
     inkscape:zoom="1.7560494"
     inkscape:cx="277.49933"
     inkscape:cy="138.08832"
     inkscape:window-x="0"
     inkscape:window-y="18"
     inkscape:current-layer="svg2" />
  <defs
     id="defs4">
    <inkscape:perspective
       sodipodi:type="inkscape:persp3d"
       inkscape:vp_x="0 : 526.18109 : 1"
       inkscape:vp_y="0 : 1000 : 0"
       inkscape:vp_z="744.09448 : 526.18109 : 1"
       inkscape:persp3d-origin="372.04724 : 350.78739 : 1"
       id="perspective11" />
  </defs>
  <g
     id="layer1"
     style="display:inline"
     transform="matrix(0.3187161,0,0,0.3560982,-104.4094,-28.899595)">
    <path
       d="M 414.625,81.15625 C 407.05207,82.022846 402.89618,88.173781 400.96875,94.9375 C 399.63552,114.82179 408.96229,132.96322 409.09375,152.59375 C 409.09902,155.7626 405.21906,153.21847 404.875,154.78125 C 402.09784,148.98371 380.79021,118.98998 378,121.5 C 375.28684,123.87341 390.6571,136.35464 395.03125,144.78125 C 386.28419,140.62215 373.04912,125.45922 370.40625,128.375 C 368.78151,130.57785 396.28087,147.51364 391.65625,148.0625 C 390.32297,148.22074 366.81232,134.30697 365.28125,136.0625 C 363.20026,138.59497 387.46037,148.48107 398,156.71875 C 397.68774,156.75201 401.09382,159.36933 401.54911,160.42411 C 396.03822,165.58018 381.19376,160.32921 369.8125,156.4375 C 365.89001,154.98905 361.9692,153.51615 358,152.34375 C 353.94755,151.00339 350.18957,149.9255 347.125,149.5625 C 338.18308,149.84511 329.06548,155.74854 328.0625,164.09375 C 327.77538,165.11592 327.60053,166.13721 327.59375,167.1875 C 327.83144,176.15286 337.39138,182.61048 346.75,182.90625 C 348.8626,182.65601 351.33669,182.05829 353.96875,181.28125 C 361.95766,179.4741 369.67553,176.04534 377.53125,173.46875 C 385.95402,171.1169 397.51721,167.22911 401.70982,171.15179 C 400.56256,173.80966 398.25028,175.81327 401.0625,173.125 C 401.09364,173.17307 401.12373,173.20035 401.15625,173.25 C 393.13602,181.85815 363.35998,193.6118 365.65625,196.40625 C 367.1873,198.16177 390.69797,184.24801 392.03125,184.40625 C 396.65588,184.95512 369.15651,201.8909 370.78125,204.09375 C 373.42414,207.00954 386.65919,191.8466 395.40625,187.6875 C 391.03209,196.11412 375.66184,208.59534 378.375,210.96875 C 381.16519,213.47877 402.44159,183.48504 405.21875,177.6875 C 408.44722,179.72608 408.40393,177.60219 412.68303,179.86607 C 409.05856,226.95336 403.6668,297.9268 398.3125,355.96875 C 400.86562,371.86003 405.93126,382.04378 414.9375,381.78125 C 415.08326,381.76659 415.25148,381.6776 415.4375,381.5625 C 415.66745,381.72228 415.88876,381.82628 416.0625,381.84375 C 425.06874,382.10628 430.13437,371.95379 432.6875,356.0625 C 431.83398,326.46563 426.49491,297.54712 425.56806,268.08084 C 425.05251,251.69072 423.90413,248.20925 422.97457,231.95701 C 422.22222,218.80296 421.74882,192.13404 418.34821,179.11161 C 417.63884,175.70142 424.53105,177.11958 424.85714,175.63839 C 427.6343,181.43593 449.80354,213.54127 452.59375,211.03125 C 455.30691,208.65784 439.9679,196.20787 435.59375,187.78125 C 444.34081,191.94035 457.54463,207.10328 460.1875,204.1875 C 461.81224,201.98465 434.34413,185.04887 438.96875,184.5 C 440.30203,184.34176 463.81268,198.25552 465.34375,196.5 C 459.155,191.81031 433.40047,173.99469 427.82589,172.94643 C 430.43016,175.39238 429.54348,173.89567 428.44196,171.34375 C 431.59227,168.39627 441.1523,170.66044 447.0625,171.71875 C 458.77452,174.53232 469.96526,180.73095 481.90625,182.25 C 481.95919,182.25673 482.00953,182.2747 482.0625,182.28125 C 482.70823,182.40218 483.33973,182.49169 483.9375,182.5625 C 484.20917,182.55391 484.47821,182.51887 484.75,182.5 C 484.91653,182.50995 485.08314,182.52336 485.25,182.53125 C 485.95292,182.46644 486.67634,182.33541 487.40625,182.15625 C 487.41585,182.15389 487.4279,182.15863 487.4375,182.15625 C 495.54179,180.60103 502.91702,174.68844 503.125,166.84375 C 503.12204,166.38512 503.09013,165.9234 503.03125,165.46875 C 503.02737,165.43882 503.03536,165.4049 503.03125,165.375 C 502.83328,157.90784 496.13125,152.18726 488.5,150.3125 C 488.44603,150.29924 488.39781,150.26287 488.34375,150.25 C 487.3292,149.94662 486.31343,149.74566 485.34375,149.65625 C 485.09338,149.66809 484.84337,149.7023 484.59375,149.71875 C 484.34274,149.70205 484.09464,149.66418 483.84375,149.65625 C 483.13831,149.73981 482.39661,149.87868 481.625,150.03125 C 470.03673,151.6034 459.14462,157.49497 447.78125,160.34375 C 447.77153,160.34619 447.75972,160.34132 447.75,160.34375 C 441.50703,161.56539 432.35133,164.4878 429.0625,161.41071 C 427.28919,157.756 429.94934,162.86545 428.12054,159.05357 C 436.14075,150.44543 467.73377,138.5132 465.4375,135.71875 C 463.90643,133.96323 440.39578,147.87699 439.0625,147.71875 C 434.43787,147.16988 461.90599,130.2341 460.28125,128.03125 C 457.63837,125.11547 444.43456,140.2784 435.6875,144.4375 C 440.06164,136.01087 455.40066,123.52966 452.6875,121.15625 C 449.89731,118.64623 428.62091,148.63996 425.84375,154.4375 C 424.24969,154.12473 420.69562,155.41885 420.70089,152.25 C 422.64322,133.13397 428.46587,114.76407 430.50761,95.603903 C 429.23569,87.20397 422.77475,81.473626 414.625,81.15625 z"
       id="cross"
       style="fill:#000000" />
    <path
       d="M 450.52805,163.93303 C 450.52805,174.25403 442.50042,182.62085 432.59784,182.62085 C 422.69526,182.62085 414.66763,174.25403 414.66763,163.93303 C 414.66763,153.61203 422.69526,145.24521 432.59784,145.24521 C 442.50042,145.24521 450.52805,153.61203 450.52805,163.93303 L 450.52805,163.93303 z"
       transform="matrix(0.8223257,0,0,0.7889881,59.436405,36.61212)"
       id="outercircle"
       style="fill:#000000;fill-rule:evenodd;stroke:#000000;stroke-width:1px;stroke-linecap:butt;stroke-linejoin:miter;stroke-opacity:1" />
    <path
       d="M 421.60713,166.20148 C 421.60919,169.21083 419.01024,171.65141 415.80356,171.65141 C 412.59688,171.65141 409.99793,169.21083 409.99999,166.20148 C 409.99793,163.19213 412.59688,160.75155 415.80356,160.75155 C 419.01024,160.75155 421.60919,163.19213 421.60713,166.20148 z"
       id="innercircle"
       style="fill:#ffffff" />
  </g>
</svg>
