<?xml version="1.0" encoding="UTF-8" standalone="no"?>
<!-- Created with Inkscape (http://www.inkscape.org/) -->
<svg
   xmlns:dc="http://purl.org/dc/elements/1.1/"
   xmlns:cc="http://creativecommons.org/ns#"
   xmlns:rdf="http://www.w3.org/1999/02/22-rdf-syntax-ns#"
   xmlns:svg="http://www.w3.org/2000/svg"
   xmlns="http://www.w3.org/2000/svg"
   xmlns:sodipodi="http://sodipodi.sourceforge.net/DTD/sodipodi-0.dtd"
   xmlns:inkscape="http://www.inkscape.org/namespaces/inkscape"
   version="1.0"
   width="152.67841"
   height="29.130686"
   id="svg2"
   sodipodi:version="0.32"
   inkscape:version="0.46"
   sodipodi:docname="divider.svg"
   inkscape:output_extension="org.inkscape.output.svg.inkscape">
  <metadata
     id="metadata17">
    <rdf:RDF>
      <cc:Work
         rdf:about="">
        <dc:format>image/svg+xml</dc:format>
        <dc:type
           rdf:resource="http://purl.org/dc/dcmitype/StillImage" />
      </cc:Work>
    </rdf:RDF>
  </metadata>
  <sodipodi:namedview
     inkscape:window-height="684"
     inkscape:window-width="1047"
     inkscape:pageshadow="2"
     inkscape:pageopacity="0.0"
     guidetolerance="10.0"
     gridtolerance="10.0"
     objecttolerance="10.0"
     borderopacity="1.0"
     bordercolor="#666666"
     pagecolor="#ffffff"
     id="base"
     showgrid="false"
     showborder="true"
     borderlayer="false"
     inkscape:showpageshadow="true"
     inkscape:zoom="1.7560494"
     inkscape:cx="119.43501"
     inkscape:cy="103.64382"
     inkscape:window-x="28"
     inkscape:window-y="28"
     inkscape:current-layer="svg2" />
  <defs
     id="defs4">
    <inkscape:perspective
       sodipodi:type="inkscape:persp3d"
       inkscape:vp_x="0 : 526.18109 : 1"
       inkscape:vp_y="0 : 1000 : 0"
       inkscape:vp_z="744.09448 : 526.18109 : 1"
       inkscape:persp3d-origin="372.04724 : 350.78739 : 1"
       id="perspective19" />
  </defs>
  <g
     id="layer1"
     transform="matrix(0.5,0,0,-0.5,-115.45357,299.83142)">
    <g
       id="g3349"
       style="fill:#000000">
      <path
         d="M 528.09375,541.40625 C 527.07008,541.45206 525.76011,541.82329 524.1875,542.5625 C 521.6661,543.7477 519.03723,544.71848 518.34375,544.71875 C 517.65025,544.71903 514.76021,545.58338 511.9375,546.65625 C 507.62972,548.78788 503.78351,547.29396 499.25,547.09375 C 487.49787,546.53281 475.91211,543.67823 464.0625,544.6875 C 455.59569,544.75366 443.56249,553.56424 443.5625,559.6875 C 442.80772,566.08783 444.1566,556.49164 442.48192,568.3501 C 442.48192,569.40349 436.77791,569.3132 433.75,569.53125 C 433.18809,569.57172 431.74833,565.38211 433.30739,565.21247 C 435.88264,564.93226 438.13031,564.76522 439.06268,564.60628 C 439.72832,564.42908 439.06219,563.24177 438.90577,562.2635 C 437.07271,561.83138 432.77515,562.71699 432.54424,562.70994 C 431.61851,562.68165 429.75789,564.14804 429.38994,564.93584 C 428.73074,567.73304 429.09663,569.94985 429.82233,572.57367 C 429.85702,573.89572 433.19856,573.98559 436.59375,573.71875 C 443.08478,573.2086 443.51375,573.36227 446.28125,579.21875 C 450.65336,588.47085 452.72077,586.73393 457.46875,588.28125 C 468.70611,587.66181 483.08288,585.09607 494.50428,583.79854 C 497.41831,583.82677 516.44465,585.73938 523.46875,586.3125 C 527.18217,586.61549 529.70611,586.98922 529.74718,586.04318 C 528.57287,583.63573 526.78599,581.90104 528.125,579.59375 C 528.84338,578.84616 530.75861,576.86874 532.375,575.21875 C 538.38204,569.08684 537.33141,560.10534 529.90625,554.15625 C 527.08942,551.89939 527.07388,551.87504 528.8125,548.90625 C 531.62959,544.09593 531.16476,541.26881 528.09375,541.40625 z M 468.34375,549.65625 C 469.31567,549.67329 470.32551,549.7507 471.34375,549.875 C 484.51388,550.46165 506.74512,552.95592 510.28125,552.53125 C 512.42601,551.33538 513.71349,553.11822 511.84375,554.78125 C 507.33924,558.02803 488.65964,556.67727 484.53125,556.03125 C 466.2244,552.71005 457.0095,554.37204 454.03125,561.5 C 451.90881,566.57972 452.29742,568.93672 454.46875,564.15625 C 456.46007,559.77206 464.93797,556.43458 467.96875,556.59375 C 469.2997,556.66366 473.16528,557.95365 490,559.34375 C 503.12422,560.42745 511.47828,559.02821 514.90625,555.15625 C 517.94344,551.72568 519.56876,551.50618 519.5625,554.53125 C 513.69328,562.04025 501.08439,565.60597 495.12754,564.36612 C 488.43799,562.66665 470.78061,559.51545 467.5,559.25 C 459.43353,559.57927 460.00487,574.04297 466.7573,574.14404 C 476.33962,573.12298 485.6409,570.23565 494.9375,567.8125 C 501.72782,566.46548 506.82399,569.63173 513.03125,571.15625 C 520.99452,572.65016 523.53866,575.8568 520.4375,579.09375 C 517.54845,582.10927 515.68126,582.37331 512.53125,580.6875 C 508.49409,578.52688 491.32892,578.94012 476.0625,581.5625 C 459.0268,584.48881 452.32183,582.57657 449.25,573.875 C 444.66419,560.88474 453.76493,549.4006 468.34375,549.65625 z M 452.8125,570.0625 C 451.66255,570.13278 453.08944,574.08942 455.65625,576.65625 C 459.17453,580.17453 460.50781,580.29631 472.0625,578.125 C 476.4625,577.29817 481.7398,576.36229 483.78125,576.0625 C 494.03982,575.28828 506.22514,573.47527 515.96875,576.65625 C 515.96422,574.42956 508.61792,572.91156 496.73911,573.21731 C 491.92527,573.34121 485.94496,573.97569 480.0625,574.65625 C 468.0484,575.59038 460.81251,578.00876 460.8125,577.03125 C 457.46949,575.34779 455.94437,573.91951 454.03125,570.6875 C 453.47418,570.22518 453.07787,570.04628 452.8125,570.0625 z"
         id="path2396"
         style="fill:#000000" />
    </g>
    <g
       id="g3341">
      <path
         d="M 384.09375,544 C 368.65615,543.97101 356.12356,556.13739 356.09375,571.15625 L 356.09375,571.28125 C 356.12594,586.26167 368.60192,598.40859 384,598.4375 C 399.4376,598.46649 411.97021,586.30013 412,571.28125 C 412.0298,556.26238 399.53137,544.029 384.09375,544 z M 426.90625,569 L 412.40625,569.125 C 426.80092,568.99876 426.90625,569 426.90625,569 z"
         id="path2558"
         style="fill:none;stroke:#000000;stroke-width:2.33399987;stroke-miterlimit:4;stroke-dasharray:none;stroke-opacity:1" />
      <path
         d="M 385.0182,550.60243 C 373.50729,550.22638 363.84285,558.80029 363.44592,569.70574 L 405.14529,569.77743 C 405.15136,568.42527 404.88437,567.11012 404.56277,565.8092 C 404.45739,565.38291 404.34614,564.95812 404.2367,564.53407 C 401.69195,556.65036 394.13266,550.90017 385.0182,550.60243 z"
         id="path2485"
         style="fill:#ffffff;fill-rule:evenodd;stroke:#000000;stroke-width:2.65014124;stroke-linecap:butt;stroke-linejoin:miter;stroke-miterlimit:4;stroke-dasharray:none;stroke-opacity:1" />
      <path
         d="M 366.97884,564.72648 C 369.5171,556.89048 376.81448,551.58177 385.05133,551.57908 C 393.28817,551.57639 400.58902,556.88034 403.13239,564.71468"
         transform="matrix(1.1501809,0,0,-1.2688329,-58.522455,1292.2196)"
         id="path2496"
         style="fill:#000000" />
      <path
         d="M 362.98557,573.03684 C 405.48679,572.92649 405.63591,572.92649 405.63591,572.92649"
         id="path2500"
         style="fill:none;fill-rule:evenodd;stroke:#000000;stroke-width:1.01592255px;stroke-linecap:butt;stroke-linejoin:miter;stroke-opacity:1" />
    </g>
    <path
       id="path2562"
       style="fill:#ff0000" />
    <path
       d="M 384.06688,544.05828 C 399.50448,544.02929 412.03707,556.19567 412.06688,571.21453 L 412.06688,571.33953 C 412.03469,586.31995 399.55871,598.46687 384.16063,598.49578 C 368.72303,598.52477 356.19042,586.35841 356.16063,571.33953 C 356.13083,556.32066 368.62926,544.08728 384.06688,544.05828 z M 341.25438,569.05828 L 355.75438,569.18328 C 341.35971,569.05704 341.25438,569.05828 341.25438,569.05828 z"
       id="path3347"
       style="fill:none;stroke:#000000;stroke-width:2.33399987;stroke-miterlimit:4;stroke-dasharray:none;stroke-opacity:1" />
    <g
       transform="matrix(-1,0,0,1,767.1711,1.4715732)"
       id="g3352"
       style="fill:#000000">
      <path
         d="M 528.09375,541.40625 C 527.07008,541.45206 525.76011,541.82329 524.1875,542.5625 C 521.6661,543.7477 519.03723,544.71848 518.34375,544.71875 C 517.65025,544.71903 514.76021,545.58338 511.9375,546.65625 C 507.62972,548.78788 503.78351,547.29396 499.25,547.09375 C 487.49787,546.53281 475.91211,543.67823 464.0625,544.6875 C 455.59569,544.75366 443.56249,553.56424 443.5625,559.6875 C 442.80772,566.08783 444.1566,556.49164 442.48192,568.3501 C 442.48192,569.40349 436.77791,569.3132 433.75,569.53125 C 433.18809,569.57172 431.74833,565.38211 433.30739,565.21247 C 435.88264,564.93226 438.13031,564.76522 439.06268,564.60628 C 439.72832,564.42908 439.06219,563.24177 438.90577,562.2635 C 437.07271,561.83138 432.77515,562.71699 432.54424,562.70994 C 431.61851,562.68165 429.75789,564.14804 429.38994,564.93584 C 428.73074,567.73304 429.09663,569.94985 429.82233,572.57367 C 429.85702,573.89572 433.19856,573.98559 436.59375,573.71875 C 443.08478,573.2086 443.51375,573.36227 446.28125,579.21875 C 450.65336,588.47085 452.72077,586.73393 457.46875,588.28125 C 468.70611,587.66181 483.08288,585.09607 494.50428,583.79854 C 497.41831,583.82677 516.44465,585.73938 523.46875,586.3125 C 527.18217,586.61549 529.70611,586.98922 529.74718,586.04318 C 528.57287,583.63573 526.78599,581.90104 528.125,579.59375 C 528.84338,578.84616 530.75861,576.86874 532.375,575.21875 C 538.38204,569.08684 537.33141,560.10534 529.90625,554.15625 C 527.08942,551.89939 527.07388,551.87504 528.8125,548.90625 C 531.62959,544.09593 531.16476,541.26881 528.09375,541.40625 z M 468.34375,549.65625 C 469.31567,549.67329 470.32551,549.7507 471.34375,549.875 C 484.51388,550.46165 506.74512,552.95592 510.28125,552.53125 C 512.42601,551.33538 513.71349,553.11822 511.84375,554.78125 C 507.33924,558.02803 488.65964,556.67727 484.53125,556.03125 C 466.2244,552.71005 457.0095,554.37204 454.03125,561.5 C 451.90881,566.57972 452.29742,568.93672 454.46875,564.15625 C 456.46007,559.77206 464.93797,556.43458 467.96875,556.59375 C 469.2997,556.66366 473.16528,557.95365 490,559.34375 C 503.12422,560.42745 511.47828,559.02821 514.90625,555.15625 C 517.94344,551.72568 519.56876,551.50618 519.5625,554.53125 C 513.69328,562.04025 501.08439,565.60597 495.12754,564.36612 C 488.43799,562.66665 470.78061,559.51545 467.5,559.25 C 459.43353,559.57927 460.00487,574.04297 466.7573,574.14404 C 476.33962,573.12298 485.6409,570.23565 494.9375,567.8125 C 501.72782,566.46548 506.82399,569.63173 513.03125,571.15625 C 520.99452,572.65016 523.53866,575.8568 520.4375,579.09375 C 517.54845,582.10927 515.68126,582.37331 512.53125,580.6875 C 508.49409,578.52688 491.32892,578.94012 476.0625,581.5625 C 459.0268,584.48881 452.32183,582.57657 449.25,573.875 C 444.66419,560.88474 453.76493,549.4006 468.34375,549.65625 z M 452.8125,570.0625 C 451.66255,570.13278 453.08944,574.08942 455.65625,576.65625 C 459.17453,580.17453 460.50781,580.29631 472.0625,578.125 C 476.4625,577.29817 481.7398,576.36229 483.78125,576.0625 C 494.03982,575.28828 506.22514,573.47527 515.96875,576.65625 C 515.96422,574.42956 508.61792,572.91156 496.73911,573.21731 C 491.92527,573.34121 485.94496,573.97569 480.0625,574.65625 C 468.0484,575.59038 460.81251,578.00876 460.8125,577.03125 C 457.46949,575.34779 455.94437,573.91951 454.03125,570.6875 C 453.47418,570.22518 453.07787,570.04628 452.8125,570.0625 z"
         id="path3354"
         style="fill:#000000" />
    </g>
  </g>
</svg>
